<svg width="112" height="25" viewBox="0 0 112 25" fill="none" xmlns="http://www.w3.org/2000/svg">
<path d="M20.9601 2.4L12.6081 24.64H8.38409L8.98838e-05 2.4H3.90409L10.4961 20.896L17.1201 2.4H20.9601ZM25.8668 4.672C25.2055 4.672 24.6508 4.448 24.2028 4C23.7548 3.552 23.5308 2.99733 23.5308 2.336C23.5308 1.67466 23.7548 1.12 24.2028 0.671999C24.6508 0.223998 25.2055 -1.90735e-06 25.8668 -1.90735e-06C26.5068 -1.90735e-06 27.0508 0.223998 27.4988 0.671999C27.9468 1.12 28.1708 1.67466 28.1708 2.336C28.1708 2.99733 27.9468 3.552 27.4988 4C27.0508 4.448 26.5068 4.672 25.8668 4.672ZM27.6588 7.008V24.64H24.0108V7.008H27.6588ZM41.5683 6.72C42.9123 6.72 44.107 7.008 45.1523 7.584C46.219 8.16 47.051 9.01333 47.6483 10.144C48.267 11.2747 48.5763 12.64 48.5763 14.24V24.64H44.9603V14.784C44.9603 13.2053 44.5657 12 43.7763 11.168C42.987 10.3147 41.9097 9.888 40.5443 9.888C39.179 9.888 38.091 10.3147 37.2803 11.168C36.491 12 36.0963 13.2053 36.0963 14.784V24.64H32.4483V0.959999H36.0963V9.056C36.715 8.30933 37.4937 7.73333 38.4323 7.328C39.3923 6.92267 40.4377 6.72 41.5683 6.72ZM60.4936 2.4C62.8616 2.4 64.9309 2.85866 66.7016 3.776C68.4936 4.672 69.8696 5.97333 70.8296 7.68C71.8109 9.36533 72.3016 11.3387 72.3016 13.6C72.3016 15.8613 71.8109 17.824 70.8296 19.488C69.8696 21.152 68.4936 22.432 66.7016 23.328C64.9309 24.2027 62.8616 24.64 60.4936 24.64H53.2296V2.4H60.4936ZM60.4936 21.664C63.0963 21.664 65.0909 20.96 66.4776 19.552C67.8643 18.144 68.5576 16.16 68.5576 13.6C68.5576 11.0187 67.8643 9.00267 66.4776 7.552C65.0909 6.10133 63.0963 5.376 60.4936 5.376H56.8776V21.664H60.4936ZM92.0771 15.392C92.0771 16.0533 92.0344 16.6507 91.9491 17.184H78.4771C78.5838 18.592 79.1064 19.7227 80.0451 20.576C80.9838 21.4293 82.1358 21.856 83.5011 21.856C85.4638 21.856 86.8504 21.0347 87.6611 19.392H91.5971C91.0638 21.0133 90.0931 22.3467 88.6851 23.392C87.2984 24.416 85.5704 24.928 83.5011 24.928C81.8158 24.928 80.3011 24.5547 78.9571 23.808C77.6344 23.04 76.5891 21.9733 75.8211 20.608C75.0744 19.2213 74.7011 17.6213 74.7011 15.808C74.7011 13.9947 75.0638 12.4053 75.7891 11.04C76.5358 9.65333 77.5704 8.58667 78.8931 7.84C80.2371 7.09333 81.7731 6.72 83.5011 6.72C85.1651 6.72 86.6478 7.08267 87.9491 7.808C89.2504 8.53333 90.2638 9.55733 90.9891 10.88C91.7144 12.1813 92.0771 13.6853 92.0771 15.392ZM88.2691 14.24C88.2478 12.896 87.7678 11.8187 86.8291 11.008C85.8904 10.1973 84.7278 9.792 83.3411 9.792C82.0824 9.792 81.0051 10.1973 80.1091 11.008C79.2131 11.7973 78.6798 12.8747 78.5091 14.24H88.2691ZM102.483 21.376L107.475 7.008H111.347L104.627 24.64H100.275L93.5871 7.008H97.4911L102.483 21.376Z" fill="white"/>
</svg>
